# xmcd
#
# Track frame offsets: 
#        150
#        13206
#        29002
#        42233
#        56801
#        70980
#        86608
#        101483
#        114671
#        129441
#        143656
#        156702
#        169959
#        183687
#        195765
#        209246
#        221200
#        236071
#        248452
#        261519
#
# Disc length: 3683 seconds
#
# Revision: 0
# Processed by: cddbd v1.5.2PL0 Copyright (c) Steve Scherf et al.
# Submitted via: ExactAudioCopy v0.95a4
#
DISCID=3a0e6114
DTITLE=Billie Holiday - The Lady Of the Blues Vol1
DYEAR=1900
DGENRE=Jazz
TTITLE0=That Ole Devil Called Love
TTITLE1=Blue Moon
TTITLE2=You Go To My Head
TTITLE3=Fine and Mellow
TTITLE4=Strange Fruit
TTITLE5=You Turn The Tables on Me
TTITLE6=Georgia on My Mind
TTITLE7=God Bless The Child
TTITLE8=Travellin' Light
TTITLE9=Guilty
TTITLE10=I Only Have Eyes For You
TTITLE11=Let's Do It (Let's Fall in Love)
TTITLE12=My Man
TTITLE13=I Hear Music
TTITLE14=Moonglow
TTITLE15=Practice Makes Perfect
TTITLE16=Loveless Love
TTITLE17=Here It Is Tomorriw Again
TTITLE18=I've Got My Love To Keep Me Warm
TTITLE19=Lover Man
EXTD=
EXTT0=
EXTT1=
EXTT2=
EXTT3=
EXTT4=
EXTT5=
EXTT6=
EXTT7=
EXTT8=
EXTT9=
EXTT10=
EXTT11=
EXTT12=
EXTT13=
EXTT14=
EXTT15=
EXTT16=
EXTT17=
EXTT18=
EXTT19=
PLAYORDER=
